<?xml version="1.0" encoding="UTF-8" standalone="no"?>
<!-- Created with Inkscape (http://www.inkscape.org/) -->

<svg
   width="755.90552"
   height="755.90552"
   viewBox="0 0 200 200"
   version="1.1"
   id="svg5"
   inkscape:version="1.1.2 (0a00cf5339, 2022-02-04)"
   sodipodi:docname="icon.svg"
   xmlns:inkscape="http://www.inkscape.org/namespaces/inkscape"
   xmlns:sodipodi="http://sodipodi.sourceforge.net/DTD/sodipodi-0.dtd"
   xmlns="http://www.w3.org/2000/svg"
   xmlns:svg="http://www.w3.org/2000/svg">
  <sodipodi:namedview
     id="namedview7"
     pagecolor="#505050"
     bordercolor="#eeeeee"
     borderopacity="1"
     inkscape:pageshadow="0"
     inkscape:pageopacity="0"
     inkscape:pagecheckerboard="0"
     inkscape:document-units="mm"
     showgrid="false"
     units="px"
     inkscape:zoom="0.4187009"
     inkscape:cx="923.09332"
     inkscape:cy="560.06567"
     inkscape:window-width="1304"
     inkscape:window-height="704"
     inkscape:window-x="0"
     inkscape:window-y="0"
     inkscape:window-maximized="1"
     inkscape:current-layer="layer1" />
  <defs
     id="defs2" />
  <g
     inkscape:label="Layer 1"
     inkscape:groupmode="layer"
     id="layer1">
    <path
       id="path74"
       d="m 74.669046,31.060421 c -6.466552,2.455574 -13.200348,4.207164 -19.567096,6.931417 -1.363808,0.583557 -2.679983,1.27268 -4.019976,1.909019 -5.200939,3.217434 -9.538282,4.581268 -12.840721,9.234937 -0.719495,1.013883 -1.417312,2.089941 -1.773545,3.281048 -0.762913,2.550892 -0.434737,5.77274 0.53992,8.200043 0.611081,1.521849 1.648975,2.835251 2.473462,4.252878 1.359347,1.377881 2.564426,2.927263 4.078036,4.133646 4.310637,3.435684 8.711166,5.408938 13.920343,7.227761 6.404263,2.236097 12.292235,3.495349 19.026812,4.341166 3.225445,0.405096 6.481749,0.507302 9.722625,0.760953 7.43812,0.344675 14.867394,-0.09292 22.271274,-0.759714 1.48678,-0.133901 2.97049,-0.300043 4.45648,-0.442489 1.08539,-0.104045 2.16723,-0.294159 3.2576,-0.296979 0.77141,-0.0021 1.53128,0.188409 2.29692,0.282617 0.53981,0.374367 1.19981,0.617662 1.61942,1.123106 1.24196,1.496012 1.59526,3.609779 1.60388,5.467694 0.0256,5.516406 -1.99184,8.276632 -4.75597,12.773816 -3.87621,4.74761 -8.93704,8.08171 -14.32335,10.89007 -0.19109,0.0996 0.57159,-0.61397 0.37435,-0.52714 -1.97494,0.86949 -3.848057,1.95421 -5.783434,2.90853 -1.713605,0.84497 -3.442083,1.65943 -5.163126,2.48914 -6.989575,3.73402 -14.546702,6.83964 -20.727572,11.88623 -2.083716,1.70133 -2.600524,2.41596 -4.429445,4.41561 -2.738168,3.81524 -5.282108,8.24087 -4.752639,13.14299 0.132334,1.22522 0.392215,2.46718 0.92025,3.58066 0.565695,1.19291 1.53675,2.14721 2.305126,3.22082 1.218994,0.87489 2.276483,2.0368 3.656984,2.62468 4.188804,1.7838 8.968999,1.7299 13.365744,1.14002 5.818505,-0.78064 12.427866,-2.83679 17.637042,-5.48539 4.9607,-2.52226 9.63615,-5.5701 14.45422,-8.35514 9.02952,-5.90341 16.44008,-13.72275 24.18978,-21.11433 1.04724,-0.99884 4.65125,-3.05031 3.2096,-2.92367 -1.93625,0.17008 -3.3022,2.05122 -4.9533,3.07684 0.27727,0.22113 0.68912,0.33871 0.8318,0.66339 0.6374,1.4505 0.62162,4.47902 0.61171,5.82178 -0.0255,3.45145 -0.4294,6.89478 -0.73934,10.32805 -0.0253,0.88949 -0.23763,5.16761 1.53388,5.30852 0.92658,0.0737 1.90887,-0.2624 2.67439,-0.78964 3.67819,-2.53328 7.49698,-5.01003 10.51991,-8.29767 1.96769,-2.13999 2.77235,-5.11073 4.15853,-7.6661 3.78763,-10.8161 5.50175,-13.35581 5.93156,-25.60061 0.5722,-16.301173 -3.51207,-32.507558 -9.32084,-47.601539 -1.57062,-4.081225 -3.57352,-7.982659 -5.36029,-11.973986 -2.11489,-3.560157 -5.93898,-11.769063 -10.56421,-13.96138 -7.17218,-3.399543 -16.79145,4.89983 -20.70721,7.897249 -5.33462,4.083518 -14.63592,16.46836 -18.46919,21.273495 -8.363757,11.311789 -15.848497,23.233311 -22.94377,35.36978 -4.320066,7.389481 -8.399155,14.913781 -12.725368,22.300061 5.218907,-1.65239 -7.406505,7.57199 -4.730993,6.84297 1.979255,-0.53931 3.894249,-1.79806 5.082498,-3.4703 0.428767,-0.6034 -1.490676,-0.30658 -2.096699,-0.73164 -2.500008,-1.7535 -4.24471,-4.51507 -6.033138,-6.87856 -0.913042,-1.6048 -1.981223,-3.13078 -2.73913,-4.81442 -2.305466,-5.121432 -3.529256,-11.212992 -1.883585,-16.73292 1.582722,-5.308769 3.32826,-6.218131 7.052662,-10.245516 2.129176,-1.353952 4.033454,-3.153616 6.387531,-4.061851 0.610833,-0.235667 1.075785,0.905467 1.730044,0.929976 3.191359,0.119554 6.382922,-0.748178 9.567381,-0.506754 6.433098,0.487714 14.000842,2.796738 19.455088,6.291368 2.938629,1.882833 5.288121,4.556112 7.932179,6.834166 1.89301,2.814225 4.17974,5.400392 5.67903,8.442672 4.46268,9.055399 4.68702,18.807479 1.68057,28.313559 -2.15956,6.8283 -4.45818,9.64866 -8.19085,15.53363 -4.108569,4.64244 -5.060741,6.27337 -9.964692,9.8133 -1.486252,1.07285 -2.933213,2.4181 -4.722048,2.81814 -1.14682,0.25646 2.968278,-1.22504 2.628093,-2.34988 -0.315918,-1.04458 -2.195422,0.46236 -3.264791,0.24461 -0.894972,-0.18224 -1.574099,-0.92679 -2.36115,-1.39019 -0.446765,-0.96356 -1.138092,-1.84802 -1.340295,-2.89069 -0.569108,-2.93465 0.287423,-6.08769 1.210009,-8.81105 1.166156,-3.44235 2.483429,-5.98195 4.723998,-8.86667 1.05547,-1.35891 2.328039,-2.53433 3.49206,-3.8015 -4.204504,0.39637 9.804296,-6.06784 6.883448,-5.60051 -1.643187,0.2629 -3.07439,1.42352 -4.278892,2.57172 -0.464481,0.44276 1.284933,-0.48499 1.900825,-0.30482 1.630026,0.47684 1.109625,3.71179 1.135779,4.32347 -0.411001,1.90196 -0.689861,3.83737 -1.233003,5.70589 -2.214356,7.61789 -5.764813,14.82525 -9.331473,21.87718 -1.050163,2.07636 -2.187456,4.10801 -3.231052,6.18769 -0.83602,1.66601 -1.604584,3.36503 -2.406875,5.04755 -0.349969,1.30857 -1.090356,2.57175 -1.049904,3.9257 0.154038,5.15573 7.915135,5.80613 11.352123,6.11863 4.864833,0.44232 10.66291,0.16738 15.52817,0.0537 5.76224,-0.23122 11.50054,-0.78923 17.23406,-1.37885 1.01196,-0.10407 2.02081,-0.24691 3.03622,-0.30886 0.41761,-0.0255 0.91423,0.29084 1.25427,0.0471 1.79195,-1.28458 3.26088,-2.96842 4.89132,-4.45263 -13.21002,3.76501 -26.539,7.12701 -39.910463,10.26935 -3.14969,0.7402 -6.29349,1.51184 -9.465802,2.14814 -2.477799,0.49698 -4.985091,0.83355 -7.477636,1.25032 -3.731932,0.19494 -6.311318,0.82178 -9.812525,-0.63079 -5.656522,-2.34677 -8.008797,-8.73175 -10.011907,-13.95363 -1.01264,-3.99351 -2.84049,-9.0899 -0.525164,-13.0303 0.261409,-0.44489 0.645644,-0.8051 0.968468,-1.20765 0.378767,-0.35479 0.740505,-0.72868 1.136298,-1.06436 4.317336,-3.66167 -2.473735,2.40179 3.094643,-2.50493 4.287174,-3.77776 8.329949,-7.77799 12.373499,-11.81358 6.71984,-6.90809 12.749204,-14.43285 18.879777,-21.85431 1.655284,-2.00383 3.217744,-4.08889 4.974998,-6.00393 1.096063,-1.19448 5.126364,-3.75041 3.567444,-3.30554 -2.206938,0.6298 -3.780135,2.60374 -5.670199,3.90561 -1.916888,7.71636 -5.629857,14.81355 -9.26551,21.83272 -0.349308,0.63153 -1.698614,2.20677 -1.047924,1.8946 2.8542,-1.36934 5.817102,-2.85932 7.944712,-5.20343 1.103405,-1.21568 0.657426,-3.2216 1.129414,-4.79405 0.764614,-2.54736 1.541145,-5.1016 2.57624,-7.55155 3.462277,-8.19478 5.547307,-10.8462 10.314877,-18.516325 5.54725,-7.861972 11.67738,-15.334827 18.48572,-22.14218 1.30246,-1.302271 5.90113,-3.592576 4.06539,-3.742113 -2.731,-0.222464 -7.19225,5.461219 -8.81036,7.286119 -7.50764,10.39354 -16.30583,19.76877 -25.262479,28.909329 -1.450039,1.47981 -13.756267,13.75183 -16.268248,15.74332 -1.599245,1.26787 -3.516328,2.07262 -5.27449,3.10894 1.540754,-1.8926 3.726027,-3.40785 4.622266,-5.67778 0.841952,-2.13243 -0.111323,-4.6205 0.331938,-6.86987 0.718646,-3.64682 1.801522,-7.2312 3.130854,-10.70232 3.30726,-8.635814 7.880215,-16.72831 13.024313,-24.384105 2.47913,-3.689607 5.311756,-7.128981 7.967636,-10.693474 4.7978,-5.41238 8.82952,-10.530499 14.50851,-15.005386 1.71087,-1.348118 3.49407,-4.122452 5.56022,-3.43286 1.70771,0.56996 -2.88374,2.42856 -3.48629,4.125047 -0.44399,1.250058 0.74556,2.609181 0.62523,3.930277 -0.23151,2.541643 -1.10929,4.982337 -1.66394,7.473505 -1.42621,3.423351 -2.65992,6.933414 -4.27863,10.270059 -3.56373,7.345902 -8.6895,15.610747 -13.17901,22.409099 -3.67146,5.559598 -8.322718,12.003188 -12.456317,17.330008 -1.437375,1.8523 -2.96047,3.63646 -4.440706,5.45469 -1.020193,0.58243 -3.763899,2.68824 -3.06058,1.7473 1.836687,-2.45724 5.153943,-3.72302 6.571093,-6.44389 1.147107,-2.20239 0.185058,-4.98199 0.650476,-7.4212 0.705718,-3.69861 1.663467,-7.35715 2.851107,-10.930279 3.797663,-11.425632 6.334993,-15.389736 11.846237,-26.267135 6.07179,-10.035079 7.80794,-13.413486 14.46907,-22.602459 1.86216,-2.568842 3.67363,-5.202719 5.86745,-7.494828 1.21023,-1.264449 4.97333,-4.674505 4.25318,-3.079242 -8.86777,19.643645 -4.18553,-8.744064 -6.60099,15.451909 -1.03198,4.612048 -1.91138,9.260912 -3.09595,13.836145 -2.95136,11.399223 -6.25836,21.318844 -10.12103,32.439759 -4.11735,11.85418 -8.659795,23.53755 -13.271874,35.20453 -0.809625,2.09205 -1.633625,4.1786 -2.428872,6.27616 -0.469977,1.23963 -0.940231,2.47973 -1.366655,3.735 -0.193037,0.56825 -0.473117,1.13241 -0.490617,1.73229 -0.0079,0.27068 0.177647,0.81677 0.419793,0.69554 2.892798,-1.44836 5.746917,-3.04877 8.285552,-5.0541 0.534024,-0.42184 0.391847,-1.30345 0.587771,-1.95517 0,0 -7.674874,3.5704 -7.674874,3.5704 v 0 c -0.279432,0.61843 -1.501833,1.99767 -0.838301,1.8553 2.521636,-0.54101 4.664948,-2.20608 7.049741,-3.18796 0.114171,-0.047 -0.13916,0.46646 -0.139851,0.34299 -0.02101,-3.76915 2.246667,-7.36381 2.898907,-10.94559 3.95205,-11.51657 7.94613,-23.01859 11.83886,-34.555473 3.79569,-11.249269 7.22589,-21.314455 10.58429,-32.708694 1.39832,-4.744185 2.61589,-9.53979 3.92383,-14.309685 0.63242,-3.432032 3.94674,-7.471492 1.89725,-10.296091 -1.72655,-2.379522 -5.9718,-0.05459 -8.78279,0.806458 -2.65007,0.811758 -8.49391,9.983653 -8.64006,10.197677 -6.2037,9.084997 -8.07087,12.614121 -13.900166,22.426911 -2.320502,4.508987 -4.816988,8.931666 -6.961508,13.526963 -3.666855,7.857373 -6.882548,16.072134 -8.982617,24.507374 -0.665975,2.67499 -3.219731,6.11807 -1.364128,8.15665 3.467642,3.8096 8.090379,-0.31587 10.610048,-2.20785 8.052969,-10.77029 15.750731,-21.822241 22.622641,-33.39279 2.26162,-3.807989 4.50053,-7.635578 6.51691,-11.578918 1.77985,-3.480752 3.24098,-7.115476 4.86147,-10.673217 0.72016,-2.694165 1.90819,-5.305174 2.16049,-8.082494 0.15145,-1.667174 0.67944,-4.696127 -0.97876,-4.92582 -3.56786,-0.494212 -6.97127,1.915838 -10.26748,3.368011 -1.83139,0.806834 -3.45196,2.060355 -4.98202,3.350276 -5.29038,4.460073 -9.16831,9.513684 -13.66782,14.776442 -2.587866,3.554351 -5.33146,7.000383 -7.763597,10.663057 -5.238263,7.888558 -9.83833,15.993954 -13.472194,24.753203 -1.512861,3.64667 -2.900519,7.3727 -3.810291,11.21448 -0.610892,2.57968 -2.859122,6.35302 -0.721019,7.92032 2.594401,1.90179 6.359951,-0.9705 9.539925,-1.45575 1.482765,-0.98074 3.096985,-1.78706 4.448291,-2.94223 1.908136,-1.63117 14.663655,-14.63068 15.437935,-15.43002 9.27889,-9.579235 18.43069,-19.31078 26.80125,-29.704938 0.98051,-1.944119 5.06707,-5.360051 2.94153,-5.832356 -3.12215,-0.693756 -5.77176,2.810528 -8.41103,4.617008 -1.39598,0.955495 -2.42832,2.357763 -3.58401,3.593126 -6.44449,6.88875 -12.37504,14.257282 -17.78714,21.98202 -2.000903,3.18714 -4.133836,6.29511 -6.002702,9.56142 -3.913137,6.8392 -5.283044,10.10841 -7.920119,17.19899 -0.638069,1.71565 -3.350144,4.31681 -1.749706,5.20516 5.662216,3.14291 7.002849,-1.06449 8.25214,-3.83844 1.781805,-3.82753 3.619323,-7.63523 5.333984,-11.49323 0.688515,-1.54917 3.147853,-7.08228 3.488573,-8.99 0.1816,-1.01674 -0.0947,-2.06349 -0.14208,-3.09523 -2.850703,1.41979 -5.873248,2.53717 -8.552114,4.25937 -1.487776,0.95647 -7.59918,8.97693 -7.626279,9.01061 -6.076772,7.55294 -12.226128,15.07296 -19.149488,21.88005 -6.126842,5.82239 -4.831241,4.7342 -10.443295,9.61259 -0.998198,0.86771 -2.004052,1.72674 -3.019967,2.57363 -0.555194,0.46283 -2.545339,2.00377 -3.213992,2.65283 -0.385198,0.37391 -0.719574,0.79685 -1.079362,1.19527 -0.282591,0.46599 -0.627708,0.8994 -0.847773,1.39797 -1.87412,4.24597 0.08895,9.20345 1.297356,13.30234 2.105353,5.27865 4.693028,12.23603 10.427906,14.62146 3.76192,1.56477 6.553203,0.78803 10.528615,0.47498 2.613414,-0.49248 5.241679,-0.91181 7.840241,-1.47743 3.263075,-0.71027 6.494553,-1.5587 9.739159,-2.34906 12.781073,-3.11337 25.532463,-6.37155 38.420583,-9.02295 2.90811,-1.93762 5.99924,-3.62532 8.72433,-5.81287 0.4157,-0.3337 -1.06719,0.0288 -1.59661,0.0912 -1.09119,0.12843 -2.17311,0.32632 -3.26095,0.48058 -5.88063,0.83391 -11.78182,1.52905 -17.718,1.82682 -6.59117,0.16899 -14.388334,0.74642 -20.803033,-1.18009 -2.056561,-0.61764 -4.53127,-1.59484 -4.679373,-4.18458 -0.0713,-1.24682 0.548421,-2.43676 0.822629,-3.65514 0.717905,-1.63285 1.394315,-3.28457 2.153709,-4.89853 5.284128,-11.23051 11.597558,-22.17951 14.251078,-34.43164 -0.042,-1.26747 0.224,-2.58347 -0.12588,-3.80242 -0.51927,-1.80909 -2.10047,-2.47012 -3.75565,-1.66891 -6.20407,3.00317 -11.435324,6.4541 -16.231101,11.24791 -1.145545,1.30538 -2.399755,2.52288 -3.436636,3.91614 -2.271257,3.0519 -3.493145,5.51833 -4.662368,9.11147 -0.962044,2.95646 -1.860156,6.27633 -1.240195,9.44228 0.235516,1.2027 1.00852,2.23399 1.512779,3.35099 0.907304,0.58584 1.674318,1.49493 2.721912,1.75752 4.500425,1.12806 13.101465,-4.81733 14.475587,-5.5516 5.682686,-3.03661 10.144602,-7.61461 13.987592,-12.71681 3.57914,-5.91807 5.83369,-8.84472 7.87234,-15.66334 2.92002,-9.7665 2.56026,-19.49945 -2.06542,-28.723302 -1.54718,-3.085174 -3.88106,-5.70838 -5.8216,-8.56257 -2.67112,-2.335914 -5.04429,-5.064554 -8.013371,-7.007744 -5.40398,-3.53677 -13.089382,-6.002964 -19.488711,-6.659842 -3.149388,-0.323279 -6.436717,-0.608754 -9.495539,0.207809 -9.74595,2.601714 -13.355039,5.555458 -20.691752,10.428488 -3.795969,4.291057 -5.512758,5.185354 -7.040507,10.752262 -1.561573,5.690153 -0.234725,11.912669 2.07622,17.181829 0.754192,1.71963 1.804792,3.29339 2.707187,4.94008 1.39431,2.0011 3.829847,5.81382 5.795611,7.52425 0.693145,0.6031 1.552075,1.58562 2.427314,1.30607 8.688146,-2.77491 9.564412,-5.11733 13.191675,-11.65854 3.896034,-7.25453 7.614666,-14.612067 11.63433,-21.79927 6.774603,-12.113061 14.061924,-23.95511 22.428753,-35.046583 12.04979,-14.64106 6.73594,-9.0746 19.68642,-21.537634 0.50899,-0.489839 0.88759,-1.280125 1.58192,-1.410213 2.08197,-0.39007 4.37367,-0.828021 6.35412,-0.07666 5.06785,1.922677 8.90275,9.385289 11.42508,13.129834 1.91539,3.89473 4.08288,7.675311 5.74617,11.68419 6.2064,14.958743 10.10917,31.117095 9.05162,47.423066 -0.80654,12.43565 -2.74359,15.01955 -7.08732,25.87579 -13.06423,21.03669 -5.28872,3.50928 -1.70294,7.88515 0.50432,0.61544 -1.14905,1.19984 -1.91031,1.43133 -1.03858,0.31582 -1.32344,-2.00507 -1.34234,-2.14388 -0.10314,-0.75739 -0.0644,-1.52739 -0.0966,-2.29109 0.19992,-3.44487 0.53055,-6.89437 0.60296,-10.34508 0.0316,-1.50451 0.14979,-5.07355 -0.60246,-6.62708 -0.30403,-0.62788 -1.02989,-0.94128 -1.54483,-1.41192 -3.00795,1.74727 -6.14311,3.29191 -9.02383,5.24183 -1.11041,0.75161 -1.92994,1.86227 -2.8757,2.81278 -1.35005,1.35682 -2.65452,2.75866 -4.0113,4.10876 -6.04983,6.02009 -12.34614,11.80434 -19.49099,16.52849 -0.87039,0.53837 -1.67895,1.19276 -2.61117,1.61512 -6.138178,2.78105 -10.476554,4.51507 -17.12988,5.41242 -4.082383,0.55059 -8.670464,0.5924 -12.570624,-1.07308 -1.29178,-0.55162 -2.281795,-1.6387 -3.422692,-2.45804 -0.704879,-0.99267 -1.60524,-1.87221 -2.114632,-2.97799 -2.591348,-5.62527 0.905785,-11.66763 4.253087,-16.01969 1.890183,-1.96042 2.387875,-2.61704 4.506526,-4.27844 0.803323,-0.62995 3.474204,-2.0654 2.495331,-1.77562 -1.433402,0.42433 -2.852666,1.13889 -3.910957,2.19469 -2.258976,2.25366 11.646857,-7.66795 8.463446,-4.47299 2.810611,-1.36734 8.469736,-4.09092 11.125843,-5.51126 4.188042,-2.23955 8.349732,-4.52889 12.487082,-6.86075 3.89604,-2.19585 7.3201,-4.15636 10.63803,-7.18201 1.38976,-1.267332 2.53521,-2.779013 3.80282,-4.16852 0.90129,-1.516602 1.94278,-2.958222 2.70389,-4.549807 1.45011,-3.032408 2.14515,-5.534826 2.14638,-8.868396 7.9e-4,-2.067248 -0.39052,-4.47498 -1.71962,-6.178016 -0.48985,-0.627668 -1.26795,-0.963329 -1.90192,-1.444993 -0.855,-0.109355 -1.70319,-0.344291 -2.565,-0.328064 -1.1633,0.02191 -2.30899,0.289231 -3.46248,0.441563 -1.5644,0.206594 -3.12497,0.442478 -4.69114,0.635203 -7.56478,0.930887 -15.16987,1.563021 -22.802435,1.301663 -3.238386,-0.2282 -6.492652,-0.29129 -9.715156,-0.684599 C 71.450744,75.340537 58.570933,72.04557 50.146158,64.983367 c -1.42363,-1.193382 -2.546691,-2.705163 -3.820035,-4.057745 -0.749689,-1.363861 -1.710198,-2.631525 -2.24907,-4.09158 -0.886957,-2.403187 -1.039328,-5.288423 -0.182861,-7.733443 0.394488,-1.126175 1.086845,-2.139529 1.811078,-3.087886 0.769202,-1.007242 3.392316,-1.719582 2.638012,-2.73803 -0.760367,-1.026639 -2.323782,1.062355 -3.485673,1.593533 1.348668,-0.670155 2.668934,-1.400802 4.046003,-2.010471 6.098166,-2.69984 12.588993,-4.400225 18.917747,-6.448687 0,0 6.847687,-5.348637 6.847687,-5.348637 z"
       style="stroke-width:0.264583" />
    <path
       id="path76"
       d="m 75.509312,67.713428 c 2.092121,0.760812 2.781485,1.027792 5.319842,1.825416 2.178386,0.684511 4.379246,1.296358 6.555693,1.987005 5.577204,1.769803 15.136893,4.969534 20.426713,6.857402 3.67155,1.310333 7.31011,2.71136 10.96516,4.067037 8.53766,3.176667 16.83642,6.934004 24.83137,11.295417 4.56792,2.491899 8.98855,5.242142 13.42301,7.960235 0,0 6.7172,-4.356113 6.7172,-4.356113 v 0 c -4.64353,-2.600309 -9.26752,-5.241088 -14.02896,-7.623384 -8.29191,-4.148693 -16.84344,-7.74189 -25.56015,-10.900872 -10.19505,-3.811675 -20.38852,-7.616794 -30.549595,-11.517689 -3.457209,-1.327242 -6.133377,-2.225103 -9.356883,-3.721155 -0.502928,-0.233413 -0.97508,-0.528106 -1.46262,-0.792157 0,0 -7.28078,4.918858 -7.28078,4.918858 z"
       style="stroke-width:0.264583" />
    <path
       id="path78"
       d="m 55.006829,46.604898 c 14.301745,1.756225 28.662355,3.012239 42.996614,4.483439 16.536277,1.70484 33.070637,3.685508 49.364557,7.045166 8.02169,1.654 11.21932,2.571311 18.93269,4.55971 2.43857,0.709943 4.87715,1.419887 7.31573,2.12983 0,0 6.02025,-4.130889 6.02025,-4.130889 v 0 c -2.52299,-0.659903 -5.04599,-1.319808 -7.56899,-1.979713 -7.80624,-1.836164 -11.3034,-2.734014 -19.37794,-4.299572 -16.36164,-3.172325 -32.9199,-5.15143 -49.47058,-7.027611 -11.014137,-1.286724 -11.97051,-1.348198 -22.573211,-2.771037 -4.0078,-0.537832 -9.53961,-1.295151 -13.718066,-2.040149 -1.841791,-0.328382 -3.056642,-0.626975 -4.752248,-1.023774 0,0 -7.168806,5.0546 -7.168806,5.0546 z"
       style="stroke-width:0.264583" />
    <path
       id="path80"
       d="m 47.86255,7.5903809 c 14.918378,5.8464341 29.679275,12.0851671 44.440128,18.3155481 21.644432,9.220958 43.423902,18.12596 65.326182,26.716147 9.25008,3.569658 4.8669,1.909892 13.14302,4.996484 0,0 6.28594,-4.252788 6.28594,-4.252788 v 0 C 168.41523,50.562044 172.98046,52.087835 163.37244,48.757681 141.16235,40.705076 119.26521,31.805996 97.606595,22.372454 83.327136,16.107854 68.985489,9.9173404 55.11371,2.7817442 c 0,0 -7.25116,4.8086367 -7.25116,4.8086367 z"
       style="stroke-width:0.264583" />
  </g>
</svg>
